HIERARCHY
ROOT root
{
	OFFSET 0.000000 0.000000 0.000000
	CHANNELS 6 Xposition Yposition Zposition Zrotation Yrotation Xrotation
	JOINT lhip
	{
		OFFSET 0.058581 -0.082280 -0.017664
		CHANNELS 3 Zrotation Yrotation Xrotation
		JOINT lknee
		{
			OFFSET 0.043451 -0.386469 0.008037
			CHANNELS 3 Zrotation Yrotation Xrotation
			JOINT lankle
			{
				OFFSET -0.014790 -0.426874 -0.037428
				CHANNELS 3 Zrotation Yrotation Xrotation
				JOINT ltoe
				{
					OFFSET 0.041054 -0.060286 0.122042
					CHANNELS 3 Zrotation Yrotation Xrotation
					End Site
					{
						OFFSET 0.000000 0.000000 0.000000
					}
				}
			}
		}
	}
	JOINT rhip
	{
		OFFSET -0.060310 -0.090513 -0.013543
		CHANNELS 3 Zrotation Yrotation Xrotation
		JOINT rknee
		{
			OFFSET -0.043257 -0.383688 -0.004843
			CHANNELS 3 Zrotation Yrotation Xrotation
			JOINT rankle
			{
				OFFSET 0.019056 -0.420046 -0.034562
				CHANNELS 3 Zrotation Yrotation Xrotation
				JOINT rtoe
				{
					OFFSET -0.034840 -0.062106 0.130323
					CHANNELS 3 Zrotation Yrotation Xrotation
					End Site
					{
						OFFSET 0.000000 0.000000 0.000000
					}
				}
			}
		}
	}
	JOINT lowerback
	{
		OFFSET 0.004439 0.124404 -0.038385
		CHANNELS 3 Zrotation Yrotation Xrotation
		JOINT upperback
		{
			OFFSET 0.004488 0.137956 0.026820
			CHANNELS 3 Zrotation Yrotation Xrotation
			JOINT chest
			{
				OFFSET -0.002265 0.056032 0.002855
				CHANNELS 3 Zrotation Yrotation Xrotation
				JOINT lowerneck
				{
					OFFSET -0.013390 0.211636 -0.033468
					CHANNELS 3 Zrotation Yrotation Xrotation
					JOINT upperneck
					{
						OFFSET 0.010113 0.088937 0.050410
						CHANNELS 3 Zrotation Yrotation Xrotation
						End Site
						{
							OFFSET 0.000000 0.000000 0.000000
						}
					}
				}
				JOINT lclavicle
				{
					OFFSET 0.071702 0.114000 -0.018898
					CHANNELS 3 Zrotation Yrotation Xrotation
					JOINT lshoulder
					{
						OFFSET 0.122921 0.045205 -0.019046
						CHANNELS 3 Zrotation Yrotation Xrotation
						JOINT lelbow
						{
							OFFSET 0.255332 -0.015649 -0.022946
							CHANNELS 3 Zrotation Yrotation Xrotation
							JOINT lwrist
							{
								OFFSET 0.265709 0.012698 -0.007375
								CHANNELS 3 Zrotation Yrotation Xrotation
								End Site
								{
									OFFSET 0.000000 0.000000 0.000000
								}
							}
						}
					}
				}
				JOINT rclavicle
				{
					OFFSET -0.082954 0.112472 -0.023707
					CHANNELS 3 Zrotation Yrotation Xrotation
					JOINT rshoulder
					{
						OFFSET -0.113228 0.046853 -0.008472
						CHANNELS 3 Zrotation Yrotation Xrotation
						JOINT relbow
						{
							OFFSET -0.260127 -0.014369 -0.031269
							CHANNELS 3 Zrotation Yrotation Xrotation
							JOINT rwrist
							{
								OFFSET -0.269108 0.006794 -0.006027
								CHANNELS 3 Zrotation Yrotation Xrotation
								End Site
								{
									OFFSET 0.000000 0.000000 0.000000
								}
							}
						}
					}
				}
			}
		}
	}
}
MOTION
Frames: 7
Frame Time: 0.033333
0.400702 -1.175266 0.985159 -80.686584 0.268338 83.600216 10.519670 -7.649803 -18.235370 -9.562316 -16.109639 22.991979 2.314352 -3.713385 -8.084406 0.000000 -0.000000 0.000000 0.384812 -9.201847 -0.639997 5.540549 -10.061439 12.986312 1.862930 -4.093458 -14.431240 0.000000 -0.000000 0.000000 -0.979018 5.679718 18.268331 0.307632 -0.776973 -4.990074 1.480598 1.727073 -1.040056 0.538530 15.116811 0.154038 6.029200 12.838348 12.439084 -21.198232 2.045523 -4.511568 -49.417587 -22.331974 3.606534 116.519014 -57.700633 -110.809581 12.947872 0.272873 -52.240836 19.347107 0.763282 -0.296259 49.149267 6.232888 10.807867 -99.536004 69.229042 -76.900323 1.718352 7.049496 -11.865483 
0.402648 -1.176791 0.985411 -80.493418 0.353844 83.693717 10.380541 -7.274532 -18.180587 -9.119759 -16.363489 22.132575 1.929629 -3.748185 -7.481075 0.000000 -0.000000 0.000000 0.616281 -9.554995 -0.604376 5.032857 -10.012164 12.331744 1.995551 -3.972675 -14.125068 0.000000 -0.000000 0.000000 -0.866452 6.086759 18.452291 0.314087 -0.939186 -5.323128 1.547568 1.985181 -1.021884 0.325199 14.057484 0.590785 5.962813 10.787190 12.593171 -20.214002 1.631852 -5.178934 -47.988979 -22.343283 3.118667 121.843727 -55.547023 -114.958240 13.545866 0.618745 -52.062416 18.723057 1.193285 -0.639686 48.057389 6.554383 9.442322 -107.167227 67.357494 -84.314603 0.239017 7.053873 -12.423677 
0.404470 -1.177961 0.985750 -80.306326 0.479087 84.012024 10.683366 -7.087819 -18.369960 -8.789661 -15.919712 21.021666 1.111521 -3.636128 -6.782168 0.000000 -0.000000 0.000000 0.523232 -9.881211 -0.463899 5.395993 -10.070116 11.152553 2.224986 -3.716357 -13.766494 0.000000 -0.000000 0.000000 -0.877241 6.359613 18.295369 0.474123 -0.980669 -5.497400 1.562980 2.089668 -1.045283 0.221137 13.145775 0.781124 5.894810 9.112876 13.018662 -19.417754 1.871464 -5.650785 -46.180358 -22.633988 2.097853 126.133341 -53.614935 -118.315840 12.932194 0.202628 -52.333553 18.380223 0.989706 -1.132627 46.378169 6.853153 8.352720 -114.486188 65.114054 -90.546538 0.670054 7.583493 -12.094258 
0.407244 -1.179763 0.986154 -80.057746 0.557010 84.562791 11.042399 -6.763928 -18.740708 -8.330544 -15.310002 19.513611 -0.104356 -3.464393 -6.005537 0.000000 -0.000000 0.000000 0.495995 -10.211138 -0.616258 5.643841 -9.993108 9.862690 2.439766 -3.670160 -13.542789 0.000000 -0.000000 0.000000 -0.990846 6.654334 17.934506 0.695538 -1.155383 -5.750393 1.415833 2.265185 -0.915181 0.342446 12.265663 1.061652 5.666313 6.903980 13.638527 -18.053912 2.403249 -6.480473 -42.873114 -23.121974 -0.215941 130.551497 -51.281060 -122.002465 13.223969 -0.338457 -51.352010 17.838332 0.714704 -2.029560 44.837429 7.911630 6.950244 -122.323135 61.472474 -98.225135 -1.533368 8.213100 -10.698682 
0.408220 -1.180298 0.986269 -79.982253 0.568458 84.755680 11.151104 -6.648713 -18.846868 -8.176393 -15.137058 18.993876 -0.521867 -3.421525 -5.836080 0.000000 -0.000000 0.000000 0.493396 -10.245612 -0.775064 5.696399 -9.990572 9.608628 2.567905 -3.680555 -13.530148 0.000000 -0.000000 0.000000 -1.064741 6.682159 17.806233 0.785474 -1.233284 -5.806360 1.355493 2.339840 -0.867970 0.433637 12.107781 1.152695 5.541134 6.261343 13.906444 -17.635047 2.586699 -6.732886 -41.762091 -23.194825 -1.080321 131.353173 -50.626901 -122.644447 13.454515 -0.598841 -50.724436 17.635034 0.605372 -2.323365 44.496912 8.299789 6.581515 -124.363059 60.261668 -100.320671 -2.478413 8.447660 -10.385442 
0.409384 -1.180724 0.986209 -79.740663 0.904490 85.023815 11.101091 -4.132484 -19.323949 -7.303551 -15.369861 18.823096 -2.548760 -6.139847 -5.779281 0.000000 -0.000000 0.000000 0.822915 -12.041713 -1.403714 5.117973 -9.974212 10.193533 2.781698 -1.829443 -14.004600 0.000000 -0.000000 0.000000 -0.970716 6.800991 18.236197 0.476557 -2.069495 -6.811730 2.260232 2.484772 -0.838427 -2.328472 9.364789 2.184493 7.905587 8.356562 14.215302 -17.484914 1.633290 -7.435472 -38.874053 -20.958295 -6.007349 133.812154 -50.556281 -126.154774 10.577402 -1.333535 -49.326770 17.324535 1.378688 -0.698638 42.532529 8.830477 -0.066201 -133.539994 61.411626 -112.659187 -9.302159 7.842938 -9.014620 
0.411563 -1.181082 0.986471 -79.527899 0.968439 85.416418 11.192283 -3.845652 -19.396297 -6.840262 -15.352723 17.514366 -3.488450 -6.462896 -5.470569 0.000000 -0.000000 0.000000 1.077116 -11.690570 -2.059998 4.987220 -10.377829 10.145615 3.011697 -1.758528 -14.046814 0.000000 -0.000000 0.000000 -1.130021 6.663619 18.141605 0.605818 -2.215634 -6.936992 2.237754 2.480050 -0.937969 -2.065538 9.442345 2.826097 7.578447 7.498192 14.856035 -17.340573 1.643416 -7.580254 -37.431602 -20.437528 -7.521270 131.907272 -50.307792 -124.366186 10.623325 -2.251130 -47.158632 17.179661 1.344727 -0.737619 42.552510 9.349120 -0.589076 -134.584072 59.954208 -114.754799 -11.946166 8.321082 -11.463441 
